<svg xmlns="http://www.w3.org/2000/svg" viewBox="0 0 640 640" role="img" aria-label="Mockup de AlquilaloTu">
  <defs>
    <filter id="shadow" x="-30%" y="-30%" width="160%" height="180%">
      <feDropShadow dx="0" dy="18" stdDeviation="16" flood-color="#000000" flood-opacity="0.35"/>
    </filter>
  </defs>

  <rect x="140" y="20" width="360" height="600" rx="58" fill="#0d0f10" filter="url(#shadow)"/>
  <rect x="156" y="52" width="328" height="536" rx="42" fill="#19a337"/>
  <rect x="252" y="30" width="136" height="26" rx="13" fill="#080909"/>
  <circle cx="320" cy="43" r="5" fill="#1a1f20"/>
  <circle cx="356" cy="43" r="4.5" fill="#1a1f20"/>

  <g fill="none" stroke="#f4f7f3" stroke-linecap="round" stroke-linejoin="round">
    <ellipse cx="272" cy="262" rx="94" ry="56" stroke-width="16"/>
    <path d="M238 240 C304 214, 373 234, 412 287" stroke-width="16"/>
    <path d="M290 224 C346 228, 376 256, 404 300" stroke-width="12"/>
    <path d="M215 316 C219 296, 226 276, 242 254 C286 250, 342 248, 390 278 C388 318, 374 354, 356 382 C308 387, 264 386, 222 374 C212 351, 208 333, 215 316 Z" stroke-width="16"/>
    <path d="M266 320 L263 342" stroke-width="14"/>
    <path d="M310 319 L309 341" stroke-width="14"/>
    <path d="M262 360 C278 374, 301 374, 317 360" stroke-width="12"/>
  </g>
</svg>
